<svg width="164" height="164" viewBox="0 0 164 164" fill="none" xmlns="http://www.w3.org/2000/svg">
<path d="M159.506 86.8405C159.43 87.8738 159.159 88.7616 158.693 89.5041C158.227 90.2466 157.606 90.8 156.831 91.1641C156.064 91.5383 155.196 91.6898 154.228 91.6187C153.27 91.5483 152.434 91.2716 151.72 90.7887C151.006 90.3152 150.473 89.6724 150.121 88.8604C149.768 88.0577 149.629 87.1444 149.705 86.1205L149.974 82.4484L159.776 83.1684L159.506 86.8405ZM151.782 86.1187C151.716 87.0216 151.911 87.7425 152.368 88.2814C152.824 88.8203 153.504 89.1229 154.407 89.1892C155.31 89.2556 156.031 89.0559 156.57 88.5901C157.11 88.1244 157.413 87.4401 157.479 86.5372L157.562 85.4062L151.865 84.9878L151.782 86.1187Z" fill="#A5FD48"/>
<path d="M148.039 97.1146C148.25 96.215 148.653 95.4372 149.248 94.7811C149.841 94.1341 150.562 93.6754 151.411 93.405C152.268 93.1459 153.164 93.1261 154.1 93.3458C155.036 93.5655 155.825 93.9808 156.468 94.5919C157.108 95.212 157.55 95.9437 157.794 96.7869C158.035 97.6393 158.05 98.5152 157.839 99.4148C157.628 100.314 157.226 101.088 156.633 101.735C156.039 102.391 155.319 102.845 154.473 103.097C153.626 103.358 152.734 103.379 151.798 103.16C150.863 102.94 150.069 102.523 149.417 101.91C148.774 101.299 148.331 100.572 148.088 99.7289C147.844 98.8857 147.828 98.0142 148.039 97.1146ZM150.165 97.6137C149.986 98.377 150.098 99.0455 150.5 99.6193C150.901 100.202 151.519 100.592 152.355 100.788C153.2 100.986 153.926 100.912 154.535 100.566C155.15 100.231 155.547 99.6822 155.726 98.9189C155.907 98.1466 155.802 97.47 155.411 96.8893C155.018 96.3176 154.394 95.9316 153.54 95.7311C152.695 95.5327 151.965 95.601 151.35 95.9359C150.741 96.2821 150.346 96.8413 150.165 97.6137Z" fill="#A5FD48"/>
<path d="M143.182 111.63L144.089 109.415L151.216 108.009L145.607 105.709L146.514 103.494L155.608 107.222L154.7 109.438L147.548 110.833L153.183 113.143L152.275 115.358L143.182 111.63Z" fill="#A5FD48"/>
<path d="M140.881 119.113L142.769 115.968L141.583 114.57L142.873 112.421L149.467 120.533L148.04 122.909L137.786 120.895L139.09 118.723L140.881 119.113ZM142.782 119.537L146.492 120.346L144.028 117.46L142.782 119.537Z" fill="#A5FD48"/>
<path d="M140.366 133.379L138.87 132.178L140.5 130.147L134.332 125.195L135.83 123.327L141.998 128.28L143.627 126.248L145.123 127.449L140.366 133.379Z" fill="#A5FD48"/>
<path d="M135.611 135.535L134.215 134.119L131.933 136.37L130.636 135.054L132.918 132.803L131.405 131.267L128.824 133.813L127.478 132.446L131.764 128.219L138.661 135.221L134.375 139.448L133.029 138.081L135.611 135.535Z" fill="#A5FD48"/>
<path d="M127.207 145.213L123.89 140.359C123.558 139.873 123.183 139.581 122.766 139.482C122.348 139.384 121.908 139.492 121.446 139.809C120.983 140.125 120.718 140.498 120.651 140.929C120.583 141.359 120.716 141.817 121.047 142.303L124.365 147.158L122.389 148.509L119.079 143.666C118.584 142.941 118.32 142.223 118.286 141.512C118.251 140.8 118.409 140.138 118.76 139.525C119.102 138.918 119.593 138.396 120.232 137.958C120.872 137.521 121.53 137.252 122.207 137.151C122.881 137.063 123.536 137.169 124.171 137.469C124.811 137.778 125.379 138.294 125.874 139.019L129.183 143.862L127.207 145.213Z" fill="#A5FD48"/>
<path d="M110.782 143.507L115.676 145.912L113.737 142.03L115.878 140.959L120.27 149.751L118.128 150.822L116.202 146.964L115.198 152.287L112.681 153.545L113.935 147.534L108.165 144.815L110.782 143.507Z" fill="#A5FD48"/>
<path d="M102.74 146.667L105.883 149.506L106.425 149.319L105.214 145.812L107.477 145.03L110.685 154.32L106.887 155.632C106.155 155.885 105.489 155.972 104.889 155.893C104.28 155.817 103.77 155.599 103.359 155.237C102.951 154.885 102.653 154.435 102.464 153.888C102.251 153.27 102.237 152.658 102.422 152.051C102.598 151.447 102.991 150.926 103.6 150.488L100.186 147.55L102.74 146.667ZM106.978 150.92L105.576 151.405C105.161 151.548 104.887 151.756 104.755 152.029C104.613 152.305 104.606 152.629 104.734 152.999C104.856 153.352 105.058 153.593 105.34 153.723C105.613 153.856 105.956 153.851 106.371 153.707L107.773 153.223L106.978 150.92Z" fill="#A5FD48"/>
<path d="M93.9508 150.616L97.5484 149.901L97.787 148.084L100.245 147.595L98.6714 157.928L95.9525 158.468L90.5506 149.522L93.036 149.028L93.9508 150.616ZM94.9149 152.309L96.8103 155.6L97.2905 151.836L94.9149 152.309Z" fill="#A5FD48"/>
<path d="M87.7909 159.503L86.9584 149.711L89.3438 149.508L90.1763 159.3L87.7909 159.503Z" fill="#A5FD48"/>
<path d="M75.8544 149.744L78.2475 149.809L82.0863 155.977L82.25 149.917L84.6432 149.982L84.3778 159.806L81.9847 159.741L78.1466 153.545L77.9821 159.633L75.589 159.568L75.8544 149.744Z" fill="#A5FD48"/>
<path d="M70.7339 156.965L71.0388 155L67.8707 154.508L68.1541 152.682L71.3221 153.174L71.6527 151.044L68.0697 150.487L68.3638 148.592L74.3125 149.516L72.8055 159.228L66.8568 158.304L67.1509 156.408L70.7339 156.965Z" fill="#A5FD48"/>
<path d="M56.4365 147.665C56.7933 147.804 57.0901 148.019 57.3271 148.311C57.5554 148.6 57.6992 148.926 57.7584 149.29C57.8143 149.662 57.773 150.026 57.6346 150.383C57.4929 150.749 57.2776 151.045 56.9888 151.274C56.6967 151.511 56.3689 151.659 56.0056 151.718C55.6336 151.774 55.2692 151.732 54.9125 151.594C54.5471 151.452 54.2502 151.237 54.0219 150.948C53.7849 150.655 53.6385 150.323 53.5826 149.951C53.5234 149.588 53.5646 149.223 53.7064 148.858C53.8448 148.501 54.0601 148.204 54.3522 147.967C54.641 147.739 54.9714 147.597 55.3434 147.541C55.7068 147.482 56.0711 147.523 56.4365 147.665Z" fill="#A5FD48"/>
<path d="M38.6631 146.514C37.8101 145.926 37.1811 145.243 36.7763 144.465C36.3714 143.688 36.2078 142.872 36.2855 142.019C36.3502 141.168 36.6578 140.343 37.2083 139.543C37.7536 138.751 38.4147 138.17 39.1917 137.799C39.961 137.422 40.7848 137.287 41.6632 137.394C42.534 137.495 43.392 137.837 44.2373 138.42L47.2688 140.51L41.6946 148.604L38.6631 146.514ZM43.1889 140.214C42.4435 139.7 41.723 139.504 41.0275 139.625C40.332 139.747 39.7275 140.18 39.214 140.926C38.7005 141.671 38.5083 142.395 38.6374 143.096C38.7665 143.797 39.2038 144.404 39.9492 144.918L40.8828 145.562L44.1225 140.857L43.1889 140.214Z" fill="#A5FD48"/>
<path d="M35.6028 131.405C36.2724 132.042 36.74 132.782 37.0057 133.628C37.2647 134.466 37.2963 135.321 37.1007 136.191C36.8918 137.061 36.4563 137.845 35.7942 138.542C35.1321 139.239 34.3752 139.71 33.5235 139.956C32.6649 140.196 31.8105 140.208 30.9602 139.992C30.1031 139.769 29.3398 139.34 28.6701 138.703C28.0005 138.066 27.5362 137.329 27.2773 136.49C27.0116 135.645 26.9833 134.794 27.1925 133.937C27.395 133.073 27.8272 132.293 28.4893 131.596C29.1514 130.899 29.9116 130.424 30.7697 130.171C31.6215 129.925 32.4725 129.91 33.3229 130.126C34.1732 130.342 34.9332 130.768 35.6028 131.405ZM34.0986 132.988C33.5305 132.448 32.8973 132.207 32.1991 132.264C31.4942 132.315 30.8461 132.652 30.2547 133.274C29.6569 133.904 29.3537 134.568 29.3451 135.269C29.3233 135.969 29.5965 136.589 30.1647 137.13C30.7396 137.676 31.3763 137.928 32.0748 137.883C32.7665 137.833 33.4145 137.489 34.0187 136.853C34.6165 136.224 34.9263 135.559 34.9481 134.859C34.9567 134.158 34.6735 133.535 34.0986 132.988Z" fill="#A5FD48"/>
<path d="M25.5357 119.904L26.9925 121.803L24.6204 128.672L29.429 124.981L30.8858 126.88L23.0898 132.865L21.633 130.965L24.0273 124.079L19.1965 127.788L17.7397 125.888L25.5357 119.904Z" fill="#A5FD48"/>
<path d="M20.2626 114.202L22.0337 117.415L23.8375 117.091L25.0474 119.285L14.726 120.92L13.3875 118.493L20.2751 110.63L21.4986 112.849L20.2626 114.202ZM18.9421 115.635L16.3801 118.44L20.1115 117.756L18.9421 115.635Z" fill="#A5FD48"/>
<path d="M8.19613 106.573L9.98666 105.885L10.9193 108.317L18.3036 105.481L19.1611 107.716L11.7768 110.552L12.7094 112.983L10.9189 113.671L8.19613 106.573Z" fill="#A5FD48"/>
<path d="M8.74874 101.437L10.6751 100.946L9.88404 97.8394L11.6748 97.383L12.4659 100.49L14.5551 99.9573L13.6603 96.4434L15.5189 95.9697L17.0044 101.804L7.4809 104.231L5.99541 98.3971L7.85399 97.9234L8.74874 101.437Z" fill="#A5FD48"/>
<path d="M4.63354 89.2385L10.4994 88.8311C11.086 88.7904 11.5275 88.6147 11.824 88.3041C12.1205 87.9935 12.2492 87.5588 12.2103 87.0002C12.1714 86.4415 11.9833 86.0242 11.646 85.7483C11.3086 85.4723 10.8467 85.3547 10.2601 85.3954L4.39422 85.8028L4.22786 83.4146L10.0798 83.0082C10.955 82.9474 11.7082 83.0822 12.3393 83.4126C12.9705 83.743 13.4617 84.2141 13.8131 84.8259C14.1638 85.4284 14.3661 86.116 14.4199 86.8888C14.4737 87.6616 14.3731 88.3656 14.1179 89.0008C13.8528 89.6274 13.43 90.1386 12.8494 90.5344C12.2596 90.9309 11.527 91.1595 10.6518 91.2203L4.79989 91.6267L4.63354 89.2385Z" fill="#A5FD48"/>
<path d="M14.4226 75.6571L9.86346 78.6524L14.193 78.9531L14.0267 81.3413L4.22229 80.6604L4.38865 78.2722L8.69028 78.571L4.61629 75.0041L4.81183 72.197L9.35165 76.3294L14.6259 72.7382L14.4226 75.6571Z" fill="#A5FD48"/>
<path d="M15.7748 67.0984L11.733 68.3645L11.6191 68.9271L15.2551 69.6643L14.7799 72.0106L5.14784 70.0578L5.94546 66.1198C6.09924 65.3605 6.36249 64.7425 6.73522 64.2658C7.1098 63.7798 7.55722 63.4515 8.07745 63.2808C8.58855 63.1083 9.12766 63.0795 9.69479 63.1945C10.3351 63.3243 10.8697 63.6231 11.2987 64.091C11.7296 64.5498 11.9788 65.1527 12.0466 65.8997L16.3112 64.4502L15.7748 67.0984ZM9.95886 68.5905L10.2535 67.1361C10.3405 66.7061 10.3002 66.3646 10.1324 66.1116C9.96649 65.8494 9.69144 65.6793 9.30726 65.6014C8.94137 65.5273 8.631 65.5786 8.37615 65.7555C8.12315 65.9232 7.95311 66.2221 7.86603 66.652L7.57144 68.1065L9.95886 68.5905Z" fill="#A5FD48"/>
<path d="M16.7717 57.6552L15.5613 61.1178L17.0059 62.2462L16.179 64.6118L8.07581 58.0092L8.99048 55.3925L19.4404 55.2814L18.6043 57.6735L16.7717 57.6552ZM14.8241 57.6264L11.0261 57.5879L14.0249 59.9128L14.8241 57.6264Z" fill="#A5FD48"/>
<path d="M12.2941 47.6634L21.149 51.9271L20.1112 54.0845L11.2563 49.8207L12.2941 47.6634Z" fill="#A5FD48"/>
<path d="M26.4469 42.8095L25.1845 44.8437L17.9239 45.047L23.0732 48.2458L21.8108 50.2799L13.4625 45.0938L14.7249 43.0597L22.0093 42.8712L16.8362 39.6576L18.0986 37.6235L26.4469 42.8095Z" fill="#A5FD48"/>
<path d="M22.9122 34.5623L24.4486 35.8239L26.4819 33.3451L27.9101 34.5178L25.8769 36.9966L27.5431 38.3648L29.8428 35.5613L31.3251 36.7784L27.5071 41.4328L19.9116 35.1961L23.7295 30.5417L25.2119 31.7588L22.9122 34.5623Z" fill="#A5FD48"/>
<path d="M38.1077 26.922C37.8084 27.1605 37.473 27.3085 37.1012 27.3661C36.7368 27.4178 36.3828 27.3777 36.0391 27.2458C35.6897 27.1066 35.3958 26.8873 35.1574 26.588C34.9132 26.2813 34.7653 25.9457 34.7136 25.5811C34.6561 25.2092 34.6933 24.8513 34.8252 24.5075C34.9644 24.1579 35.1836 23.8638 35.4829 23.6253C35.7894 23.381 36.1249 23.233 36.4893 23.1812C36.8611 23.1236 37.2217 23.1645 37.5711 23.3037C37.9147 23.4356 38.2087 23.6549 38.4528 23.9615C38.6912 24.2609 38.8391 24.5965 38.8966 24.9684C38.9483 25.333 38.9045 25.6901 38.7654 26.0398C38.6335 26.3836 38.4142 26.6777 38.1077 26.922Z" fill="#A5FD48"/>
<path d="M47.8673 12.1762C48.804 11.7337 49.7102 11.5327 50.586 11.5732C51.4617 11.6137 52.2487 11.8819 52.9472 12.3777C53.6501 12.8612 54.2086 13.5418 54.6229 14.4196C55.0332 15.289 55.2036 16.153 55.134 17.0116C55.0729 17.8663 54.7756 18.6467 54.242 19.353C53.7168 20.0552 52.99 20.6256 52.0617 21.0642L48.7325 22.6369L44.538 13.7489L47.8673 12.1762ZM51.0382 19.2561C51.8568 18.8694 52.3884 18.3448 52.633 17.6821C52.8776 17.0195 52.8067 16.2788 52.4203 15.4601C52.0339 14.6414 51.5053 14.1117 50.8345 13.8712C50.1637 13.6307 49.419 13.7038 48.6004 14.0905L47.575 14.5748L50.0128 19.7405L51.0382 19.2561Z" fill="#A5FD48"/>
<path d="M62.3008 17.1291C61.4137 17.3877 60.5383 17.4194 59.6746 17.224C58.8197 17.026 58.0658 16.6237 57.4127 16.0169C56.766 15.3985 56.3082 14.6279 56.0393 13.7049C55.7704 12.7819 55.744 11.8904 55.9601 11.0302C56.1851 10.1673 56.6049 9.42272 57.2196 8.79628C57.8432 8.16723 58.5986 7.72338 59.4856 7.46473C60.3727 7.20608 61.2436 7.17573 62.0984 7.3737C62.9622 7.56905 63.7117 7.97273 64.3468 8.58472C64.991 9.19411 65.4475 9.96029 65.7163 10.8833C65.9852 11.8062 66.0129 12.7023 65.7995 13.5715C65.5834 14.4317 65.168 15.175 64.5534 15.8014C63.9387 16.4279 63.1879 16.8704 62.3008 17.1291ZM61.69 15.0322C62.4427 14.8127 62.9699 14.3868 63.2717 13.7543C63.5825 13.1193 63.6179 12.3896 63.3777 11.5652C63.135 10.7318 62.7133 10.1353 62.1128 9.77571C61.5186 9.40453 60.8452 9.32867 60.0925 9.54814C59.3309 9.77021 58.7934 10.1943 58.48 10.8204C58.1755 11.4439 58.146 12.1768 58.3914 13.0191C58.6341 13.8525 59.0526 14.4547 59.6468 14.8259C60.2473 15.1855 60.9284 15.2543 61.69 15.0322Z" fill="#A5FD48"/>
<path d="M77.5695 14.1513L75.1937 14.4459L70.4749 8.92263L71.2202 14.9386L68.8443 15.2333L67.636 5.47982L70.0118 5.1852L74.7341 10.7363L73.9854 4.69246L76.3612 4.39784L77.5695 14.1513Z" fill="#A5FD48"/>
<path d="M85.655 12.4739L81.9888 12.3606L81.3475 14.0777L78.8427 14.0003L82.7002 4.28677L85.4709 4.37239L88.722 14.3055L86.1892 14.2273L85.655 12.4739ZM85.0963 10.6078L83.9899 6.97388L82.6755 10.533L85.0963 10.6078Z" fill="#A5FD48"/>
<path d="M98.1345 5.91279L97.8187 7.80461L95.2503 7.37536L93.9477 15.1774L91.5864 14.7827L92.8891 6.98074L90.3207 6.5515L90.6365 4.65968L98.1345 5.91279Z" fill="#A5FD48"/>
<path d="M102.448 9.01449L101.892 10.9232L104.97 11.8206L104.453 13.5949L101.375 12.6974L100.772 14.7674L104.253 15.7824L103.717 17.6239L97.9374 15.9387L100.686 6.50289L106.465 8.18804L105.929 10.0295L102.448 9.01449Z" fill="#A5FD48"/>
<path d="M115.047 11.6537L112.42 16.9141C112.157 17.4401 112.084 17.9098 112.201 18.3231C112.318 18.7364 112.627 19.0682 113.128 19.3186C113.629 19.569 114.084 19.6191 114.493 19.4687C114.902 19.3184 115.238 18.9802 115.5 18.4542L118.128 13.1938L120.269 14.2643L117.648 19.5121C117.256 20.297 116.758 20.8774 116.153 21.2532C115.548 21.629 114.892 21.8127 114.187 21.8045C113.49 21.8004 112.795 21.6251 112.102 21.2787C111.409 20.9323 110.854 20.4878 110.437 19.9452C110.032 19.3983 109.806 18.7742 109.76 18.0729C109.718 17.3632 109.893 16.6159 110.285 15.8311L112.906 10.5832L115.047 11.6537Z" fill="#A5FD48"/>
<path d="M121.459 26.7773L121.18 21.3287L118.732 24.9121L116.756 23.5606L122.3 15.4459L124.276 16.7974L121.844 20.3577L126.98 18.6469L129.303 20.2355L123.443 22.0621L123.874 28.4291L121.459 26.7773Z" fill="#A5FD48"/>
<path d="M127.969 32.0922L128.909 27.961L128.48 27.5793L126.014 30.3512L124.226 28.7592L130.758 21.4161L133.759 24.0881C134.338 24.6032 134.739 25.1419 134.963 25.7041C135.195 26.2725 135.253 26.8246 135.139 27.3602C135.031 27.8889 134.785 28.3694 134.4 28.8018C133.966 29.2899 133.439 29.6016 132.819 29.7369C132.206 29.8784 131.56 29.7904 130.88 29.4729L129.987 33.8891L127.969 32.0922ZM129.606 26.3136L130.714 27.3004C131.042 27.5921 131.357 27.7292 131.66 27.7115C131.97 27.7001 132.255 27.5479 132.516 27.2551C132.764 26.9761 132.876 26.682 132.851 26.3726C132.833 26.0695 132.661 25.772 132.333 25.4803L131.225 24.4935L129.606 26.3136Z" fill="#A5FD48"/>
<path d="M135.908 37.9923L133.53 35.1991L131.828 35.8773L130.204 33.969L139.989 30.3029L141.786 32.4138L136.61 41.4955L134.968 39.5659L135.908 37.9923ZM136.915 36.3247L138.865 33.0637L135.345 34.4804L136.915 36.3247Z" fill="#A5FD48"/>
<path d="M146.71 39.0407L138.578 44.5593L137.235 42.5777L145.367 37.0591L146.71 39.0407Z" fill="#A5FD48"/>
<path d="M143.963 54.0548L142.846 51.9374L146.338 45.5653L140.978 48.3959L139.861 46.2785L148.552 41.6894L149.669 43.8069L146.151 50.192L151.537 47.3483L152.654 49.4658L143.963 54.0548Z" fill="#A5FD48"/>
<path d="M152.764 54.9495L150.901 55.6412L152.015 58.6472L150.283 59.2902L149.168 56.2842L147.147 57.0343L148.407 60.4342L146.609 61.1015L144.516 55.457L153.73 52.0374L155.823 57.682L154.025 58.3493L152.764 54.9495Z" fill="#A5FD48"/>
<path d="M151.663 71.9C151.609 71.5212 151.651 71.1568 151.789 70.807C151.929 70.4663 152.143 70.181 152.43 69.9512C152.727 69.72 153.065 69.5772 153.444 69.5228C153.832 69.4671 154.196 69.5091 154.537 69.6488C154.887 69.7871 155.176 70.0001 155.406 70.2877C155.637 70.5845 155.78 70.9224 155.834 71.3011C155.89 71.6892 155.848 72.0535 155.708 72.3942C155.57 72.744 155.352 73.0346 155.055 73.2658C154.768 73.4956 154.43 73.6384 154.042 73.6941C153.663 73.7485 153.299 73.7065 152.949 73.5682C152.608 73.4285 152.323 73.2102 152.091 72.9134C151.862 72.6258 151.719 72.288 151.663 71.9Z" fill="#A5FD48"/>
</svg>
