<svg width="24" height="24" viewBox="0 0 24 24" fill="none" xmlns="http://www.w3.org/2000/svg">
<path d="M21 16.6729C20.508 17.7137 20.2733 18.1804 19.6398 19.0984C18.7588 20.3849 17.5111 21.9876 15.9676 21.9968C14.5978 22.0091 14.2441 21.1433 12.3823 21.1586C10.5205 21.1647 10.1314 22.0121 8.75835 21.9999C7.21809 21.9876 6.03798 20.5415 5.1537 19.2612C2.68093 15.6659 2.42047 11.4504 3.94786 9.20904C5.02829 7.61863 6.73897 6.68526 8.34675 6.68526C9.98026 6.68526 11.0092 7.54187 12.363 7.54187C13.6749 7.54187 14.4724 6.68219 16.3664 6.68219C17.7941 6.68219 19.3086 7.4252 20.389 8.71165C16.8519 10.56 17.4275 15.3834 21 16.6729ZM14.929 5.2453C15.6171 4.40404 16.1381 3.21276 15.9516 2C14.8261 2.07369 13.5142 2.75836 12.7456 3.64261C12.0511 4.45009 11.4755 5.65057 11.7006 6.81114C12.9257 6.84799 14.1927 6.15103 14.929 5.2453Z" fill="white"/>
</svg>
