<svg width="24" height="24" viewBox="0 0 24 24" fill="none" xmlns="http://www.w3.org/2000/svg">
<path fill-rule="evenodd" clip-rule="evenodd" d="M21.36 12.2204C21.36 11.529 21.298 10.8643 21.1827 10.2261H12V13.9976H17.2473C17.0212 15.2163 16.3343 16.2489 15.3017 16.9403V19.3866H18.4527C20.2964 17.6893 21.36 15.1897 21.36 12.2204Z" fill="#4285F4"/>
<path fill-rule="evenodd" clip-rule="evenodd" d="M12.002 21.75C14.6345 21.75 16.8416 20.877 18.4547 19.3879L15.3037 16.9415C14.4307 17.5265 13.3138 17.8722 12.002 17.8722C9.46258 17.8722 7.31315 16.1571 6.54645 13.8525H3.28906V16.3787C4.89338 19.5652 8.19065 21.75 12.002 21.75Z" fill="#34A853"/>
<path fill-rule="evenodd" clip-rule="evenodd" d="M6.54443 13.8513C6.34943 13.2663 6.23864 12.6414 6.23864 11.9988C6.23864 11.3561 6.34943 10.7313 6.54443 10.1463V7.62012H3.28705C2.6267 8.93637 2.25 10.4255 2.25 11.9988C2.25 13.572 2.6267 15.0611 3.28705 16.3774L6.54443 13.8513Z" fill="#FBBC05"/>
<path fill-rule="evenodd" clip-rule="evenodd" d="M12.002 6.12784C13.4335 6.12784 14.7187 6.61977 15.7292 7.58591L18.5256 4.78943C16.8371 3.21614 14.6301 2.25 12.002 2.25C8.19065 2.25 4.89338 4.43489 3.28906 7.62136L6.54645 10.1475C7.31315 7.84295 9.46258 6.12784 12.002 6.12784Z" fill="#EA4335"/>
</svg>
