<svg width="103" height="103" viewBox="0 0 103 103" fill="none" xmlns="http://www.w3.org/2000/svg">
<path fill-rule="evenodd" clip-rule="evenodd" d="M51.5716 0.380371C79.8232 0.380371 102.76 23.3176 102.76 51.5692C102.76 79.8208 79.8232 102.758 51.5716 102.758C23.3201 102.758 0.382812 79.8208 0.382812 51.5692C0.382812 23.3176 23.3201 0.380371 51.5716 0.380371ZM26.659 55.541L40.6196 69.5016C41.527 70.4113 43.0022 70.4113 43.9096 69.5016L76.4843 36.9269C77.3917 36.0194 77.3917 34.5443 76.4843 33.6368C75.5769 32.7294 74.1017 32.7294 73.1943 33.6368L42.2646 64.5665L29.949 52.2509C29.0416 51.3435 27.5664 51.3435 26.659 52.2509C25.7515 53.1584 25.7515 54.6335 26.659 55.541Z" fill="url(#paint0_linear_838_32441)"/>
<defs>
<linearGradient id="paint0_linear_838_32441" x1="-5.4341" y1="-4.27316" x2="106.251" y2="107.412" gradientUnits="userSpaceOnUse">
<stop stop-color="#B3FF63"/>
<stop offset="1" stop-color="#A5FD48"/>
</linearGradient>
</defs>
</svg>
