<svg width="20" height="20" viewBox="0 0 20 20" fill="none" xmlns="http://www.w3.org/2000/svg">
<path d="M18.7625 5.01514C17.6211 5.01514 16.568 4.63701 15.7223 3.99912C14.7524 3.26787 14.0555 2.19521 13.8094 0.958887C13.7485 0.653418 13.7157 0.338184 13.7125 0.0151367H10.452V8.92451L10.4481 13.8046C10.4481 15.1093 9.59847 16.2155 8.42073 16.6046C8.07894 16.7175 7.70979 16.771 7.32542 16.7499C6.83479 16.7229 6.37503 16.5749 5.97542 16.3358C5.12503 15.8272 4.54847 14.9046 4.53284 13.8491C4.50823 12.1995 5.84183 10.8546 7.49026 10.8546C7.81565 10.8546 8.12815 10.9077 8.42073 11.0042V8.56904V7.69365C8.11214 7.64795 7.79808 7.62412 7.4805 7.62412C5.6762 7.62412 3.9887 8.37412 2.78245 9.72529C1.87073 10.7464 1.32386 12.0491 1.23948 13.4151C1.12893 15.2097 1.78558 16.9155 3.05901 18.1741C3.24612 18.3589 3.44261 18.5304 3.64808 18.6886C4.73987 19.5288 6.07464 19.9843 7.4805 19.9843C7.79808 19.9843 8.11214 19.9608 8.42073 19.9151C9.73401 19.7206 10.9457 19.1194 11.902 18.1741C13.077 17.0128 13.7262 15.471 13.7332 13.83L13.7164 6.54248C14.277 6.9749 14.8899 7.33272 15.5477 7.61045C16.5707 8.04209 17.6555 8.26084 18.7719 8.26045V5.89287V5.01436C18.7727 5.01514 18.7633 5.01514 18.7625 5.01514Z" fill="black"/>
</svg>
